<mxfile host="app.diagrams.net" modified="2022-08-31T03:25:37.674Z" agent="5.0 (Windows NT 10.0; Win64; x64) AppleWebKit/537.36 (KHTML, like Gecko) Chrome/104.0.0.0 Safari/537.36" etag="mCyUICMchDHXpf7mvZ8L" version="20.2.4" type="github">
  <diagram id="gDYkzvTyDBVPJkNko_rk" name="第 1 页">
    <mxGraphModel dx="1550" dy="835" grid="1" gridSize="10" guides="1" tooltips="1" connect="1" arrows="1" fold="1" page="1" pageScale="1" pageWidth="827" pageHeight="1169" math="0" shadow="0">
      <root>
        <mxCell id="0" />
        <mxCell id="1" parent="0" />
        <mxCell id="RvMpkgv8Pfe3NWQdaYyJ-1" value="Coverity扫描报告可通过URL 获取&lt;br&gt;http://10.124.1.5:8080/reports.htm#v10461/p10585&lt;br&gt;其中p10585为项目ID，但是与云端部署平台的项目ID不一样，需要通过云端部署平台的项目ID在coverity里面获取到真实的项目ID" style="text;html=1;strokeColor=none;fillColor=none;align=left;verticalAlign=top;whiteSpace=wrap;rounded=0;" vertex="1" parent="1">
          <mxGeometry x="80" y="140" width="410" height="160" as="geometry" />
        </mxCell>
      </root>
    </mxGraphModel>
  </diagram>
</mxfile>
